<svg width="144" height="58" viewBox="0 0 144 58" fill="none" xmlns="http://www.w3.org/2000/svg">
<rect y="8.62305" width="31.1264" height="40.9334" fill="#CE2029"/>
<rect x="31.1688" y="8.42859" width="112.831" height="41.1429" fill="#282828"/>
<path d="M46.3417 25.4356C46.8568 24.4269 47.5865 23.6435 48.5308 23.0855C49.4966 22.5275 50.6663 22.2485 52.0398 22.2485V25.2746H51.2672C47.9836 25.2746 46.3417 27.0559 46.3417 30.6186V40.2119H43.4122V22.5705H46.3417V25.4356ZM71.5177 30.7152C71.5177 31.2732 71.4855 31.8633 71.4211 32.4857H57.3209C57.4282 34.2241 58.0184 35.5869 59.0914 36.5742C60.186 37.5399 61.5059 38.0228 63.0511 38.0228C64.3173 38.0228 65.369 37.7331 66.206 37.1536C67.0644 36.5527 67.6654 35.7586 68.0087 34.7714H71.1636C70.6914 36.4669 69.7471 37.8511 68.3307 38.9242C66.9142 39.9758 65.1543 40.5016 63.0511 40.5016C61.3771 40.5016 59.8748 40.1261 58.5442 39.3749C57.235 38.6238 56.2049 37.5614 55.4537 36.1879C54.7025 34.7929 54.327 33.1832 54.327 31.359C54.327 29.5348 54.6918 27.9359 55.4215 26.5623C56.1512 25.1888 57.1706 24.1372 58.4798 23.4075C59.8104 22.6563 61.3342 22.2807 63.0511 22.2807C64.7251 22.2807 66.206 22.6456 67.4937 23.3753C68.7814 24.105 69.7686 25.1137 70.4554 26.4014C71.1636 27.6676 71.5177 29.1055 71.5177 30.7152ZM68.4916 30.1035C68.4916 28.9875 68.2448 28.0324 67.7512 27.2384C67.2576 26.4228 66.5815 25.8112 65.7231 25.4034C64.8861 24.9742 63.9525 24.7596 62.9223 24.7596C61.4415 24.7596 60.1753 25.2317 59.1236 26.176C58.0935 27.1203 57.5033 28.4295 57.3531 30.1035H68.4916ZM78.3141 25.8219C78.8936 24.8132 79.752 23.9762 80.8895 23.3109C82.0484 22.6241 83.3898 22.2807 84.9135 22.2807C86.4802 22.2807 87.8967 22.6563 89.1629 23.4075C90.4506 24.1586 91.4593 25.221 92.189 26.5945C92.9187 27.9466 93.2836 29.524 93.2836 31.3268C93.2836 33.1081 92.9187 34.6963 92.189 36.0913C91.4593 37.4863 90.4506 38.5701 89.1629 39.3427C87.8967 40.1153 86.4802 40.5016 84.9135 40.5016C83.4112 40.5016 82.0806 40.169 80.9217 39.5037C79.7842 38.8169 78.915 37.9692 78.3141 36.9605V48.5819H75.3846V22.5705H78.3141V25.8219ZM90.2897 31.3268C90.2897 29.9962 90.0214 28.8373 89.4849 27.85C88.9483 26.8628 88.2186 26.1116 87.2958 25.5966C86.3944 25.0815 85.3964 24.8239 84.3019 24.8239C83.2288 24.8239 82.2308 25.0922 81.308 25.6287C80.4066 26.1438 79.6769 26.9057 79.1189 27.9144C78.5824 28.9016 78.3141 30.0498 78.3141 31.359C78.3141 32.6896 78.5824 33.8593 79.1189 34.868C79.6769 35.8552 80.4066 36.6171 81.308 37.1536C82.2308 37.6687 83.2288 37.9263 84.3019 37.9263C85.3964 37.9263 86.3944 37.6687 87.2958 37.1536C88.2186 36.6171 88.9483 35.8552 89.4849 34.868C90.0214 33.8593 90.2897 32.6789 90.2897 31.3268ZM104.834 40.5016C103.181 40.5016 101.679 40.1261 100.327 39.3749C98.996 38.6238 97.9444 37.5614 97.1718 36.1879C96.4206 34.7929 96.0451 33.1832 96.0451 31.359C96.0451 29.5562 96.4314 27.9681 97.204 26.5945C97.9981 25.1995 99.0712 24.1372 100.423 23.4075C101.775 22.6563 103.288 22.2807 104.962 22.2807C106.636 22.2807 108.149 22.6563 109.501 23.4075C110.854 24.1372 111.916 25.1888 112.689 26.5623C113.483 27.9359 113.88 29.5348 113.88 31.359C113.88 33.1832 113.472 34.7929 112.656 36.1879C111.862 37.5614 110.778 38.6238 109.405 39.3749C108.031 40.1261 106.508 40.5016 104.834 40.5016ZM104.834 37.9263C105.885 37.9263 106.872 37.6794 107.795 37.1858C108.718 36.6922 109.459 35.9518 110.017 34.9645C110.596 33.9773 110.886 32.7755 110.886 31.359C110.886 29.9425 110.607 28.7407 110.049 27.7534C109.491 26.7662 108.761 26.0365 107.86 25.5644C106.958 25.0707 105.982 24.8239 104.93 24.8239C103.857 24.8239 102.87 25.0707 101.968 25.5644C101.089 26.0365 100.38 26.7662 99.8438 27.7534C99.3072 28.7407 99.039 29.9425 99.039 31.359C99.039 32.7969 99.2965 34.0095 99.8116 34.9967C100.348 35.984 101.056 36.7244 101.936 37.218C102.816 37.6902 103.782 37.9263 104.834 37.9263ZM120.661 25.4356C121.176 24.4269 121.906 23.6435 122.85 23.0855C123.816 22.5275 124.985 22.2485 126.359 22.2485V25.2746H125.586C122.303 25.2746 120.661 27.0559 120.661 30.6186V40.2119H117.731V22.5705H120.661V25.4356ZM133.314 24.9849V35.3831C133.314 36.2415 133.497 36.8532 133.861 37.218C134.226 37.5614 134.859 37.7331 135.761 37.7331H137.918V40.2119H135.278C133.647 40.2119 132.423 39.8363 131.608 39.0852C130.792 38.334 130.385 37.1 130.385 35.3831V24.9849H128.099V22.5705H130.385V18.1279H133.314V22.5705H137.918V24.9849H133.314Z" fill="#EDEDED"/>
<path d="M24.5428 28.2791C24.6872 28.818 24.8089 29.3965 24.9078 30.0143L11.288 33.6637C11.8416 35.3151 12.7644 36.4787 14.0564 37.1546C15.3636 37.8042 16.7635 37.929 18.2561 37.5291C19.4792 37.2013 20.42 36.6493 21.0785 35.8729C21.7521 35.0703 22.1271 34.1477 22.2032 33.1053L25.2506 32.2887C25.2334 34.0486 24.6795 35.6302 23.589 37.0333C22.493 38.4157 20.9292 39.379 18.8976 39.9234C17.2807 40.3567 15.7323 40.3827 14.2526 40.0015C12.7937 39.6148 11.5237 38.8553 10.4426 37.723C9.356 36.5699 8.57662 35.1123 8.10447 33.3503C7.63232 31.5882 7.57091 29.9493 7.92025 28.4337C8.26958 26.9181 8.98209 25.6385 10.0578 24.5948C11.1486 23.5249 12.5233 22.7677 14.1817 22.3234C15.7987 21.8901 17.3235 21.8592 18.7562 22.2308C20.1889 22.6023 21.4035 23.3211 22.4002 24.3872C23.412 25.427 24.1262 26.7243 24.5428 28.2791ZM21.4615 28.4715C21.1727 27.3935 20.6871 26.5349 20.0048 25.8956C19.3169 25.2356 18.5056 24.8198 17.5709 24.6481C16.6513 24.4501 15.694 24.4844 14.6989 24.751C13.2685 25.1343 12.1676 25.9181 11.3962 27.1024C10.6456 28.2812 10.4143 29.6985 10.7025 31.3543L21.4615 28.4715Z" fill="#D6D6D6"/>
</svg>
